<svg version="1.2" baseProfile="tiny-ps" xmlns="http://www.w3.org/2000/svg" viewBox="0 0 256 256" preserveAspectRatio="xMidYMid meet" xml:space="preserve">
<title>DNS Tool</title>
<g transform="translate(0,256) scale(0.05,-0.05)">
<path fill="#d4a853" d="M0 2560 l0 -2560 2560 0 2560 0 0 2560 0 2560 -2560 0 -2560 0 0
-2560z m2767 2530 c770 -47 1473 -454 1908 -1105 240 -358 376 -770 406 -1228
34 -502 -61 -957 -288 -1387 -120 -228 -249 -403 -445 -602 -196 -199 -374
-329 -625 -456 -444 -226 -914 -317 -1398 -272 -644 60 -1269 392 -1696 900
-49 58 -76 93 -161 210 -33 45 -140 224 -172 289 -88 172 -190 485 -226 692
-28 157 -39 544 -21 725 30 291 107 557 241 829 128 260 244 426 440 629 168
173 321 298 500 407 481 294 946 405 1537 369z"/>
<path fill="#d4a853" d="M2395 5030 c-121 -8 -309 -35 -352 -51 -16 -6 -23 -17 -23 -34 0 -33
49 -227 59 -238 10 -10 181 21 199 36 10 8 12 24 7 53 -5 36 -3 44 14 53 30
16 48 4 55 -37 8 -52 7 -120 -2 -126 -15 -9 -312 -58 -325 -53 -7 3 -28 58
-46 123 -43 154 -56 184 -78 184 -37 0 -284 -90 -381 -139 -76 -38 -102 -56
-102 -70 0 -20 90 -185 115 -210 11 -11 25 -9 92 19 43 18 81 35 86 39 4 4 0
28 -9 53 -21 56 -14 80 23 76 23 -2 33 -14 56 -57 44 -89 46 -87 -116 -163
-78 -37 -148 -69 -156 -70 -13 -3 -71 84 -142 215 -18 31 -38 57 -47 57 -48 0
-432 -287 -432 -323 0 -13 171 -187 183 -187 15 0 147 111 147 124 0 6 -9 25
-20 41 -38 57 -14 103 36 70 33 -21 85 -101 78 -119 -3 -8 -27 -32 -52 -53
-26 -20 -79 -65 -118 -100 -39 -35 -75 -63 -80 -63 -5 0 -59 50 -119 110 -60
61 -116 110 -125 110 -33 0 -340 -374 -340 -415 0 -7 24 -27 53 -45 106 -68
161 -100 169 -100 8 0 108 144 108 157 0 4 -14 21 -31 39 -23 24 -29 38 -24
53 9 29 34 26 87 -9 56 -37 63 -52 42 -92 -29 -56 -156 -248 -165 -248 -4 0
-67 34 -140 75 -73 42 -140 74 -148 73 -33 -6 -243 -469 -222 -491 12 -12 251
-78 261 -72 10 6 60 156 60 180 0 7 -15 19 -34 25 -48 15 -61 33 -44 59 16 27
42 26 97 -2 72 -37 72 -39 17 -199 -27 -79 -52 -147 -56 -151 -4 -5 -77 9
-161 32 -126 32 -156 37 -167 27 -32 -31 -100 -502 -77 -525 6 -5 65 -11 133
-14 144 -6 135 -13 147 115 7 85 6 87 -66 102 -41 9 -49 56 -12 70 16 7 133
-12 145 -23 4 -3 -1 -82 -10 -176 l-18 -170 -163 -5 c-138 -4 -164 -7 -166
-21 -9 -59 46 -494 64 -512 10 -10 238 36 253 51 8 8 5 38 -7 101 l-17 91 -44
0 c-59 0 -89 31 -65 69 11 18 137 29 152 14 5 -5 14 -32 18 -59 40 -228 44
-265 34 -275 -6 -6 -51 -22 -99 -35 -203 -57 -194 -53 -194 -77 0 -69 172
-487 200 -487 16 0 182 85 209 107 l24 20 -33 74 c-45 99 -51 105 -88 90 -45
-19 -76 -11 -80 20 -2 14 3 30 10 36 19 16 116 43 131 37 8 -3 43 -69 80 -146
49 -106 63 -145 55 -155 -6 -7 -68 -48 -139 -90 -71 -42 -129 -81 -129 -88 0
-37 299 -425 328 -425 19 0 103 64 161 123 l43 45 -57 72 c-31 39 -63 74 -70
76 -7 3 -32 -7 -55 -22 -41 -27 -43 -28 -56 -9 -24 33 -16 52 43 94 64 46 78
49 92 24 5 -10 50 -65 100 -123 50 -58 91 -112 91 -119 0 -8 -50 -66 -112
-128 l-112 -114 40 -40 c50 -53 239 -208 316 -260 32 -22 66 -39 76 -37 14 3
141 199 142 220 0 11 -143 108 -160 108 -8 0 -27 -14 -42 -30 -29 -34 -49 -38
-69 -14 -11 13 -10 21 5 49 21 38 71 95 84 95 5 0 65 -40 133 -88 82 -58 125
-95 127 -109 2 -12 -27 -77 -67 -149 -65 -119 -69 -129 -55 -146 48 -52 472
-234 494 -212 5 5 24 62 43 127 26 90 31 120 22 127 -15 12 -152 60 -172 60
-8 0 -23 -20 -34 -45 -11 -25 -26 -45 -32 -45 -21 0 -37 22 -37 51 0 35 35
118 53 125 8 3 52 -10 98 -29 46 -18 113 -42 148 -52 34 -10 65 -25 68 -32 3
-8 -11 -77 -30 -154 -20 -77 -33 -147 -30 -155 10 -27 185 -64 391 -84 92 -9
126 -9 136 -1 10 9 14 45 15 141 l2 129 -43 5 c-24 4 -67 7 -97 9 -59 2 -66
-3 -76 -65 -5 -31 -10 -38 -29 -38 -38 0 -49 23 -41 85 11 92 13 92 230 71
l120 -11 2 -145 c2 -80 5 -156 8 -169 l6 -24 122 7 c205 11 421 46 430 69 9
24 -59 257 -74 257 -6 0 -51 -7 -100 -16 l-88 -16 -3 -57 c-3 -49 -6 -56 -25
-59 -29 -4 -41 20 -49 100 l-7 66 29 6 c16 3 89 15 163 27 112 18 135 19 146
8 8 -8 30 -70 51 -139 48 -162 48 -163 85 -155 94 21 448 169 463 194 8 13
-102 231 -120 238 -7 2 -47 -13 -91 -35 -73 -37 -78 -41 -74 -68 10 -82 8 -89
-25 -92 -31 -3 -33 -1 -53 59 -28 83 -27 98 7 110 15 5 81 34 146 63 66 30
125 52 132 49 8 -3 27 -28 42 -56 92 -165 114 -203 121 -210 13 -13 73 22 200
112 141 102 241 188 241 210 -1 9 -41 58 -89 109 l-88 94 -71 -61 c-39 -33
-74 -66 -77 -71 -4 -6 5 -26 19 -45 32 -42 32 -50 0 -72 -26 -17 -27 -17 -51
12 -34 43 -64 102 -58 117 3 7 23 25 44 40 21 15 72 59 114 98 41 38 81 70 89
70 7 0 63 -49 123 -110 60 -60 115 -110 121 -110 38 0 344 399 331 432 -7 20
-216 141 -232 134 -16 -6 -105 -135 -105 -153 0 -7 16 -24 35 -39 40 -30 44
-47 14 -68 -19 -13 -26 -13 -48 -1 -36 19 -91 73 -91 89 0 14 141 229 172 261
19 20 19 20 56 -1 174 -99 245 -135 257 -130 20 7 125 230 181 383 41 112 42
110 -94 153 -107 33 -125 36 -139 18 -11 -14 -63 -154 -63 -168 0 -5 15 -14
34 -20 43 -14 60 -33 51 -60 -8 -26 -55 -26 -112 0 -36 16 -43 24 -43 47 0 33
80 274 98 295 10 13 33 9 159 -22 94 -24 154 -34 164 -29 18 9 24 38 58 264
27 176 30 253 11 265 -8 5 -70 10 -136 10 l-121 0 -7 -31 c-3 -17 -6 -62 -6
-100 0 -74 -1 -73 70 -81 19 -2 26 -10 28 -29 5 -43 -17 -52 -94 -40 -36 5
-69 12 -71 15 -6 6 16 327 23 338 3 5 80 8 171 8 l166 0 -6 108 c-6 112 -43
380 -58 420 -8 22 -13 23 -52 17 -23 -4 -80 -17 -127 -29 l-85 -21 3 -45 c1
-25 7 -69 13 -97 l10 -53 48 0 c26 0 52 -5 59 -12 16 -16 15 -43 -2 -57 -18
-15 -132 -19 -146 -5 -11 11 -60 252 -60 296 0 23 7 29 53 46 28 11 96 32 151
48 l98 27 -5 46 c-10 77 -156 437 -185 455 -13 8 -212 -84 -231 -107 -12 -15
-8 -28 28 -103 37 -78 43 -86 64 -80 59 18 94 18 100 1 12 -28 -11 -53 -68
-74 -31 -12 -62 -21 -70 -21 -13 0 -155 279 -155 305 0 6 61 45 136 85 75 41
138 80 141 87 10 25 -167 278 -273 392 l-52 56 -96 -95 c-53 -52 -95 -97 -94
-101 7 -19 113 -139 122 -139 6 0 30 10 53 22 35 19 44 20 57 9 9 -8 16 -22
16 -32 0 -20 -97 -99 -122 -99 -13 0 -173 180 -207 235 -14 22 -11 28 92 138
59 63 107 121 107 129 0 16 -70 79 -219 196 -143 111 -189 138 -207 121 -17
-18 -134 -200 -134 -210 0 -6 109 -89 148 -113 10 -6 23 3 44 28 16 20 37 36
47 36 20 0 41 -19 41 -38 0 -16 -71 -119 -87 -126 -6 -3 -48 22 -92 55 -45 32
-106 75 -136 95 -30 20 -55 41 -55 47 0 5 34 70 75 144 41 74 75 139 75 144 0
22 -424 209 -475 209 -26 0 -36 -21 -79 -160 -20 -67 -23 -87 -13 -96 13 -13
150 -64 171 -64 7 0 24 20 37 45 13 25 29 45 36 45 27 0 43 -14 43 -36 0 -26
-43 -118 -60 -129 -11 -7 -299 83 -317 99 -10 9 -4 44 27 160 22 82 43 152 45
157 9 13 -25 26 -130 48 -128 26 -250 41 -342 41 l-72 0 -5 -42 c-11 -93 -15
-204 -7 -217 6 -9 39 -15 104 -19 l96 -5 10 41 c13 47 33 66 61 57 16 -5 20
-14 19 -48 0 -23 -6 -60 -13 -82 -11 -35 -15 -40 -41 -39 -153 8 -285 18 -292
23 -5 3 -14 77 -20 164 -6 87 -12 159 -14 161 -12 10 -57 12 -164 6z m105
-200 c3 -85 8 -160 13 -167 8 -13 40 -17 280 -34 92 -7 170 -10 173 -6 7 6 54
205 54 229 0 21 -47 35 -141 44 -63 6 -66 6 -72 -17 -4 -13 -7 -34 -7 -46 0
-28 -28 -43 -57 -32 -21 8 -23 15 -23 82 0 107 -5 105 203 77 95 -13 178 -29
185 -35 10 -9 6 -40 -19 -157 -18 -80 -30 -152 -26 -161 3 -8 54 -31 119 -52
62 -21 151 -53 197 -72 46 -19 89 -32 96 -29 16 6 104 168 111 205 5 26 1 29
-73 64 -43 20 -84 37 -91 37 -6 0 -20 -17 -31 -39 -11 -21 -27 -41 -36 -44
-20 -8 -65 9 -65 25 0 27 52 147 66 152 15 6 215 -76 299 -122 34 -19 49 -33
47 -45 -2 -10 -34 -76 -72 -147 -39 -71 -70 -131 -70 -134 0 -3 57 -43 128
-89 70 -46 149 -100 175 -120 27 -20 56 -37 66 -37 15 0 161 154 169 179 4 11
-20 34 -99 96 l-56 44 -37 -40 c-38 -43 -60 -47 -82 -14 -12 18 -11 26 9 61
12 23 32 54 44 70 18 25 24 27 47 19 32 -12 283 -205 290 -223 4 -8 -39 -63
-104 -135 -60 -67 -110 -125 -110 -130 0 -4 35 -45 79 -91 43 -46 106 -120
140 -165 34 -45 66 -81 70 -81 13 0 184 114 199 133 17 20 0 55 -61 123 l-44
48 -37 -27 c-43 -33 -61 -32 -90 6 l-21 28 55 49 c67 59 83 64 112 36 50 -46
208 -266 208 -288 0 -8 -58 -51 -130 -97 -71 -45 -132 -86 -135 -91 -3 -5 20
-60 51 -122 31 -62 72 -149 91 -193 19 -44 38 -83 42 -88 7 -7 187 49 230 72
26 14 24 22 -25 129 l-33 73 -37 -16 c-51 -21 -69 -19 -82 10 -17 37 -7 50 70
85 59 27 72 30 83 19 14 -15 118 -274 129 -321 8 -36 -7 -45 -167 -98 -71 -23
-131 -48 -133 -55 -3 -7 1 -39 10 -71 15 -60 54 -285 58 -339 l3 -30 110 3
c61 2 118 6 128 8 29 9 35 35 26 104 -17 117 -12 110 -74 110 -50 0 -55 2 -61
26 -4 17 -1 31 8 40 19 19 144 42 157 29 8 -9 28 -146 47 -322 8 -75 20 -70
-185 -77 -103 -4 -147 -9 -152 -18 -5 -7 -9 -56 -9 -107 0 -52 -5 -146 -11
-209 -9 -94 -9 -116 2 -123 7 -4 63 -20 123 -35 103 -24 110 -25 122 -9 14 19
28 123 22 170 -3 27 -7 30 -40 33 -44 4 -63 29 -53 69 6 26 7 26 83 19 42 -4
81 -11 86 -16 10 -10 -14 -233 -35 -330 l-11 -52 -42 4 c-22 3 -91 15 -153 28
-61 12 -118 20 -125 18 -7 -3 -26 -45 -42 -94 -15 -49 -48 -140 -72 -202 -24
-63 -44 -118 -44 -123 0 -13 222 -119 233 -112 13 8 77 151 77 172 0 12 -14
23 -40 34 -50 19 -60 42 -32 70 20 20 25 20 74 8 116 -29 116 -22 1 -293 -27
-66 -50 -108 -59 -108 -8 0 -77 32 -154 71 -77 39 -143 68 -148 65 -4 -3 -31
-42 -59 -88 -28 -46 -82 -126 -121 -178 -39 -53 -67 -100 -63 -107 3 -7 47
-46 96 -89 l90 -77 41 48 c23 26 50 63 60 81 l19 34 -38 35 c-39 36 -40 53 -3
84 18 15 61 -3 115 -48 27 -22 33 -33 28 -52 -4 -13 -50 -81 -103 -151 -81
-108 -100 -128 -122 -128 -20 0 -55 26 -135 100 -59 55 -110 100 -113 100 -3
0 -49 -40 -102 -88 -54 -48 -130 -114 -170 -146 -52 -41 -72 -63 -69 -76 7
-28 131 -200 144 -200 13 0 143 95 155 113 4 6 -7 26 -23 44 -33 39 -35 49
-12 75 26 29 48 21 98 -34 69 -77 67 -83 -100 -205 -77 -56 -146 -102 -153
-103 -7 0 -29 26 -49 57 -99 157 -137 213 -145 213 -4 0 -66 -28 -136 -63 -70
-35 -153 -74 -184 -86 -79 -32 -85 -40 -68 -103 19 -74 56 -161 73 -172 10 -7
38 0 93 23 44 18 82 36 87 40 4 4 0 24 -8 45 -23 55 -2 96 40 79 19 -7 75
-114 75 -142 0 -14 -20 -27 -82 -54 -144 -60 -257 -100 -272 -94 -8 3 -19 21
-24 39 -6 18 -27 86 -47 151 -41 134 -30 127 -157 98 -76 -18 -159 -31 -280
-46 l-48 -6 0 -118 c0 -158 -1 -157 121 -145 l94 9 1 50 c1 28 2 56 3 63 1 9
12 12 33 10 41 -4 55 -31 60 -112 l3 -60 -35 -7 c-81 -18 -331 -42 -341 -32
-5 5 -12 82 -16 171 l-6 162 -56 0 c-31 0 -123 7 -206 15 -191 19 -192 19
-205 -5 -6 -11 -19 -61 -30 -112 -16 -82 -17 -96 -4 -115 8 -13 22 -23 32 -23
9 -1 35 -4 57 -7 22 -4 56 -7 75 -7 34 -1 35 0 40 44 5 44 6 45 40 45 l35 0 0
-80 0 -80 -60 2 c-107 5 -259 25 -294 39 -34 14 -34 14 -27 67 3 28 17 96 31
150 14 54 25 104 25 111 0 9 -21 19 -52 26 -54 13 -150 46 -289 100 -41 17
-80 30 -87 30 -11 0 -122 -198 -122 -218 0 -21 179 -105 197 -93 6 3 14 17 18
31 11 37 25 50 52 50 34 0 38 -22 18 -95 -22 -84 -33 -92 -87 -71 -163 64
-289 123 -294 138 -3 11 22 71 60 147 36 72 66 139 66 149 0 13 -30 37 -96 78
-52 32 -134 89 -181 126 -48 38 -90 68 -94 68 -13 0 -164 -181 -164 -197 0
-12 141 -133 156 -133 4 0 19 16 33 35 30 39 68 47 85 18 7 -14 2 -31 -21 -73
-32 -57 -56 -90 -68 -90 -11 0 -202 150 -253 198 -26 26 -47 53 -47 62 0 8 34
49 76 90 41 41 89 92 106 113 l30 37 -74 83 c-41 45 -83 94 -94 108 -70 94
-119 149 -133 149 -28 0 -206 -123 -205 -142 2 -24 104 -158 121 -158 8 0 26
9 40 20 40 31 83 21 83 -21 0 -20 -106 -122 -123 -117 -16 5 -180 221 -209
275 -17 33 -20 44 -10 56 7 8 68 49 137 91 69 42 125 80 125 84 0 4 -6 16 -14
27 -28 41 -124 233 -151 302 -15 40 -33 74 -40 76 -10 5 -82 -17 -193 -59 -41
-15 -43 -18 -36 -48 3 -17 18 -60 32 -94 24 -61 26 -64 53 -58 93 19 88 19 98
-5 5 -14 5 -31 0 -41 -11 -20 -128 -80 -141 -71 -15 8 -59 111 -103 236 -37
106 -38 109 -19 126 10 10 72 35 136 55 130 40 153 55 143 95 -18 72 -54 264
-60 326 -4 39 -11 72 -15 75 -10 6 -228 -7 -249 -15 -11 -4 -13 -21 -8 -79 4
-40 11 -85 16 -99 10 -25 13 -26 60 -20 48 5 50 4 57 -21 3 -14 4 -32 1 -40
-7 -18 -68 -36 -125 -36 -54 0 -54 0 -77 204 -15 130 -15 160 -5 166 8 5 57
11 109 15 53 4 123 10 156 13 70 8 72 12 74 142 1 47 6 134 13 193 8 77 8 111
0 119 -18 18 -230 57 -241 44 -13 -15 -33 -136 -29 -172 3 -25 9 -30 48 -40
41 -10 45 -14 45 -40 l0 -29 -89 -3 -89 -3 6 83 c8 100 42 285 57 303 8 10 38
7 148 -17 75 -17 146 -31 157 -32 16 -1 26 20 65 134 25 74 59 165 74 202 16
36 26 73 23 82 -6 15 -195 116 -217 116 -15 0 -94 -166 -85 -180 3 -5 24 -19
46 -31 36 -18 40 -24 37 -52 -4 -40 -26 -45 -103 -22 -71 20 -82 39 -59 108
20 64 118 272 131 280 5 3 71 -26 147 -64 76 -39 144 -68 151 -65 7 2 42 49
77 103 36 54 91 130 122 168 31 39 56 77 56 87 0 17 -167 168 -187 168 -16 0
-123 -127 -123 -146 0 -9 14 -27 31 -41 22 -19 29 -33 27 -52 -4 -37 -42 -38
-105 -1 -69 40 -79 59 -51 96 110 144 212 264 225 264 8 0 50 -33 92 -73 103
-99 149 -137 165 -137 7 0 42 26 77 58 35 32 110 96 167 141 l102 83 -22 36
c-41 68 -120 172 -130 172 -11 0 -131 -84 -148 -105 -9 -11 -7 -21 14 -48 14
-19 26 -41 26 -50 0 -24 -39 -48 -60 -37 -21 11 -100 113 -100 128 0 12 161
136 248 191 28 18 58 31 65 28 8 -3 46 -57 86 -120 40 -64 79 -121 87 -128 12
-10 37 -1 132 44 64 31 156 74 205 96 48 22 87 45 87 50 0 12 -78 222 -85 229
-6 6 -159 -46 -180 -62 -13 -10 -15 -17 -8 -32 21 -40 23 -72 7 -88 -32 -32
-52 -20 -90 55 -19 39 -33 76 -31 83 8 20 299 136 342 136 29 0 31 -3 82 -170
35 -113 49 -143 62 -136 12 8 258 55 341 66 47 7 87 16 90 20 6 10 -6 199 -15
238 -5 22 -9 23 -68 16 -34 -3 -78 -9 -97 -13 -35 -7 -35 -7 -35 -62 0 -53 0
-54 -32 -57 -38 -4 -47 9 -62 93 -10 50 -9 62 4 71 12 9 97 22 300 48 17 2 41
3 55 2 l25 -1 5 -155z"/>
<path fill="#d4a853" d="M2405 4570 c-263 -22 -487 -89 -760 -227 -197 -100 -355 -215 -525
-383 -228 -226 -415 -550 -504 -875 -79 -288 -88 -599 -25 -916 52 -266 192
-568 368 -799 114 -150 381 -401 521 -491 61 -39 211 -119 286 -152 447 -196
970 -218 1443 -62 124 41 334 143 441 213 360 236 650 600 795 997 94 259 120
413 120 715 0 244 -7 296 -67 520 -58 219 -194 499 -322 665 -48 62 -202 237
-233 265 -265 236 -554 392 -880 474 -216 54 -444 73 -658 56z m587 -437 c9
-10 17 -25 20 -33 3 -10 9 -6 19 15 23 48 90 47 107 -2 l10 -28 10 27 c19 48
96 50 108 3 7 -30 15 -31 32 -5 14 23 70 28 90 8 17 -17 15 -74 -4 -93 -18
-18 -18 -20 12 -29 18 -6 20 -3 16 24 -3 20 2 37 13 50 35 39 105 14 105 -37
0 -23 1 -23 30 -8 27 14 33 14 60 0 23 -12 30 -22 30 -44 0 -28 1 -29 39 -24
34 5 41 2 56 -21 10 -14 14 -33 11 -42 -5 -14 -1 -15 28 -10 29 6 37 3 55 -21
16 -19 20 -35 16 -55 -6 -26 -5 -28 23 -22 22 5 35 1 51 -15 22 -22 28 -65 11
-76 -18 -11 -11 -24 15 -31 44 -11 60 -71 29 -105 -14 -16 -13 -18 13 -31 36
-17 44 -67 14 -97 -19 -19 -19 -20 2 -34 43 -28 17 -128 -29 -110 -8 3 -14 0
-14 -7 0 -6 9 -14 20 -17 24 -7 32 -30 22 -68 -5 -19 -16 -31 -29 -33 -14 -2
-26 -17 -37 -45 -34 -90 -139 -187 -239 -221 -62 -21 -133 -21 -141 -1 -3 8
-10 15 -16 15 -6 0 -35 11 -63 23 -60 27 -121 42 -112 27 3 -6 14 -10 23 -10
22 0 247 -114 291 -148 19 -14 77 -68 129 -119 51 -51 98 -93 103 -93 5 0 -9
18 -30 39 -53 53 -67 79 -46 87 34 14 132 -4 191 -34 56 -28 134 -99 134 -122
0 -6 -25 -10 -56 -10 l-56 0 26 -31 c33 -38 37 -116 8 -142 -71 -65 -211 26
-212 137 -1 21 -13 45 -40 76 -22 24 -42 41 -46 37 -4 -4 3 -18 15 -31 47 -50
83 -221 50 -242 -23 -14 -132 121 -157 195 -7 19 -12 58 -12 87 0 43 3 54 16
54 13 0 14 3 5 13 -15 19 -167 120 -221 147 -55 28 -182 72 -188 65 -3 -2 11
-21 30 -41 20 -19 46 -58 58 -85 13 -27 27 -49 31 -49 19 0 19 22 0 46 -24 30
-27 59 -8 67 22 8 97 -32 97 -52 0 -10 -7 -21 -15 -25 -12 -4 -10 -10 10 -30
32 -32 32 -70 0 -100 -19 -18 -22 -25 -12 -29 8 -3 17 -17 21 -32 9 -36 -16
-75 -49 -75 -25 0 -33 -14 -15 -25 16 -10 12 -62 -6 -79 -15 -16 -34 -20 -63
-16 -10 1 -11 -4 -6 -17 24 -58 7 -93 -46 -93 -26 0 -29 -3 -29 -33 0 -48 -21
-71 -62 -70 -32 1 -35 -1 -35 -30 0 -39 -36 -70 -72 -62 -22 4 -28 0 -41 -28
-17 -37 -61 -48 -94 -24 -18 13 -21 12 -35 -17 -13 -25 -23 -32 -53 -34 -28
-2 -40 2 -50 17 -12 19 -12 19 -35 -5 -22 -24 -67 -32 -78 -14 -13 21 -22 8
-29 -37 -7 -52 -45 -124 -78 -147 -18 -13 -21 -24 -19 -70 3 -60 -29 -150 -58
-166 -15 -8 -16 -21 -5 -148 14 -164 35 -239 71 -253 41 -15 86 -10 138 17 60
31 134 29 188 -5 19 -12 41 -21 50 -21 26 0 47 -30 47 -67 0 -33 -1 -34 -29
-28 -22 5 -32 2 -43 -13 -40 -58 -124 -76 -213 -45 -45 15 -53 15 -116 -2
l-68 -17 -36 28 -37 28 -34 -38 -35 -38 -371 4 -370 3 -19 23 c-15 19 -24 22
-54 16 -34 -6 -35 -5 -35 23 0 35 25 73 48 73 9 0 40 10 69 22 l52 21 64 -21
c35 -12 70 -22 79 -22 16 0 37 37 56 100 15 46 52 269 52 308 0 17 6 37 14 45
13 12 11 21 -10 63 -20 40 -25 61 -22 110 3 58 1 64 -32 101 -19 22 -40 48
-47 59 -11 18 -12 18 -12 -4 -1 -13 -6 -32 -11 -43 -8 -15 -7 -23 5 -35 26
-26 16 -85 -17 -104 -33 -18 -56 -8 -76 32 -9 19 -9 33 -2 54 9 22 8 31 -5 43
-13 14 -15 13 -15 -8 0 -12 -5 -31 -11 -42 -8 -16 -7 -25 5 -38 9 -10 16 -34
16 -55 0 -29 -5 -39 -25 -48 -18 -8 -34 -9 -53 -2 -25 9 -28 7 -39 -25 -8 -24
-9 -37 -2 -42 11 -6 4 -363 -7 -380 -9 -15 -134 -11 -140 5 -3 7 1 60 9 117
14 96 14 120 3 108 -3 -2 -10 -45 -16 -94 -19 -148 -12 -135 -80 -135 l-60 0
-1 33 -1 32 -10 -27 c-5 -16 -15 -28 -22 -28 -19 0 -96 84 -96 104 0 26 139
329 158 343 14 11 27 63 16 63 -3 0 -65 -40 -138 -90 -73 -49 -141 -89 -152
-89 -10 0 -28 -1 -39 -3 -28 -4 -23 30 16 109 16 35 28 67 25 72 -9 14 23 122
48 166 13 23 26 65 29 97 3 33 19 85 38 124 17 37 32 83 33 103 1 20 14 61 28
92 53 116 299 487 339 512 10 6 19 17 19 24 0 37 297 307 325 296 9 -3 15 1
15 10 0 17 105 87 130 87 9 0 32 -16 51 -36 38 -39 97 -79 105 -71 3 3 -19 23
-49 45 -95 71 -186 197 -160 223 22 22 92 -21 200 -124 138 -131 181 -151 397
-182 89 -13 165 -20 169 -16 4 4 5 15 2 23 -5 13 -25 16 -113 16 -163 -1 -306
48 -386 131 -46 47 -31 63 54 59 39 -2 70 -1 70 1 0 2 -14 31 -31 66 -35 73
-45 147 -30 228 9 49 8 61 -4 74 -25 25 -3 86 36 98 14 5 19 16 19 44 0 46 28
76 65 69 24 -5 25 -3 19 31 -7 47 20 76 66 69 28 -4 30 -2 30 25 0 17 7 39 17
49 17 19 68 25 78 8 11 -18 27 -11 20 9 -8 25 27 61 58 61 38 0 61 -33 54 -79
-4 -30 -1 -44 12 -55 24 -21 28 -20 35 9 5 18 1 32 -14 47 -33 35 -3 108 45
108 12 0 29 -8 37 -17z m-1068 -123 c53 -6 98 -22 193 -69 146 -72 153 -86 69
-124 -29 -14 -71 -40 -92 -60 -22 -19 -81 -54 -133 -77 l-93 -42 -113 3 c-103
4 -117 7 -175 37 -34 17 -72 32 -84 32 -32 0 -66 -11 -66 -21 0 -5 30 -45 67
-89 55 -66 71 -80 88 -75 107 35 186 11 227 -68 74 -146 -94 -301 -228 -211
-49 33 -61 49 -74 97 -8 28 -8 48 0 73 12 34 11 36 -61 125 -82 101 -83 101
-95 -14 -5 -54 -3 -70 16 -107 34 -66 60 -168 60 -231 0 -47 -9 -75 -55 -173
-30 -64 -62 -143 -72 -176 -14 -50 -20 -60 -38 -60 -18 0 -27 12 -46 63 -13
34 -39 94 -57 132 -50 102 -62 141 -62 201 0 77 29 143 108 247 63 83 70 99
81 162 6 39 14 82 17 96 5 20 -3 36 -35 73 -40 46 -41 48 -26 77 9 16 20 29
24 29 5 0 30 -23 55 -52 l45 -52 63 20 c57 18 65 24 93 73 36 61 58 80 138
122 92 48 141 55 261 39z m1939 -1134 c86 -17 167 -52 167 -73 0 -43 -179 -59
-260 -22 -55 25 -80 47 -80 70 0 16 29 28 92 38 3 1 40 -5 81 -13z m-295 -522
c48 -20 114 -49 147 -64 33 -15 101 -40 150 -55 50 -15 94 -31 98 -35 8 -7
-65 -32 -173 -60 -63 -16 -238 -79 -282 -101 -51 -26 -68 -24 -68 7 0 14 -4
33 -9 43 -13 24 -2 37 44 47 l40 10 0 64 0 65 -42 13 c-24 8 -43 20 -43 26 0
29 23 76 37 76 8 0 53 -16 101 -36z m192 -359 c8 -9 46 -41 85 -70 95 -72 128
-109 121 -132 -6 -17 -111 -98 -145 -111 -9 -3 -27 -19 -41 -34 -13 -15 -30
-28 -36 -28 -6 0 -19 -9 -29 -20 -21 -24 -43 -26 -51 -5 -3 8 -15 17 -27 21
-11 3 -49 31 -84 60 -34 29 -81 65 -103 80 -64 42 -53 65 65 139 33 21 86 62
117 92 56 53 58 54 86 39 16 -8 35 -22 42 -31z m33 -527 c51 -45 112 -102 136
-126 l44 -43 -29 -30 c-15 -16 -31 -29 -36 -29 -5 0 -43 36 -86 80 -43 44 -81
80 -85 80 -4 0 -7 -31 -7 -70 l0 -70 -40 0 -40 0 0 60 c0 33 -4 60 -8 60 -5 0
-43 -34 -86 -76 l-77 -75 -35 26 c-19 14 -34 31 -33 38 0 7 45 50 100 97 55
47 114 102 130 123 17 20 37 37 46 37 8 0 56 -37 106 -82z"/>
<path fill="#d4a853" d="M3133 4058 c-8 -19 -6 -27 17 -45 25 -20 29 -21 40 -7 11 12 10 17
-8 30 -12 8 -22 22 -22 30 0 21 -16 17 -27 -8z"/>
<path fill="#d4a853" d="M3005 4049 c-4 -13 -1 -27 11 -40 21 -24 31 -24 42 -1 7 13 3 22 -19
40 l-28 22 -6 -21z"/>
<path fill="#d4a853" d="M3261 4046 c-11 -13 -11 -17 4 -22 9 -4 23 -20 29 -36 12 -28 13 -28
30 -9 18 20 18 21 -7 32 -14 6 -29 20 -34 31 -8 18 -10 19 -22 4z"/>
<path fill="#d4a853" d="M2770 3988 c0 -13 -5 -29 -12 -36 -17 -17 -3 -25 22 -12 15 8 20 19
18 37 -4 34 -28 43 -28 11z"/>
<path fill="#d4a853" d="M3430 3951 c0 -18 4 -22 18 -15 9 4 32 8 50 8 23 0 32 4 32 15 0 13
-11 16 -50 16 -46 0 -50 -2 -50 -24z"/>
<path fill="#d4a853" d="M3161 3942 c-6 -13 0 -24 25 -45 46 -39 58 -12 15 31 -27 27 -32 28
-40 14z"/>
<path fill="#d4a853" d="M3037 3943 c-12 -12 -8 -20 18 -31 14 -6 25 -8 25 -3 0 13 -36 42
-43 34z"/>
<path fill="#d4a853" d="M2667 3921 c-3 -12 -1 -21 3 -21 15 0 23 21 12 32 -6 6 -11 2 -15
-11z"/>
<path fill="#d4a853" d="M3287 3926 c-3 -9 4 -21 19 -30 13 -9 24 -24 24 -32 0 -12 6 -15 23
-9 12 4 34 7 50 7 20 -1 27 4 27 18 0 23 -4 24 -30 10 -28 -15 -70 -1 -82 26
-13 27 -23 31 -31 10z"/>
<path fill="#d4a853" d="M3583 3913 c-27 -4 -33 -9 -33 -28 0 -22 2 -23 29 -14 15 5 34 9 42
7 8 -2 15 7 17 20 2 14 -1 21 -10 20 -7 0 -28 -3 -45 -5z"/>
<path fill="#d4a853" d="M3488 3833 c-57 -6 -51 -32 7 -30 36 2 45 6 45 20 0 9 -3 16 -7 15
-5 -1 -25 -3 -45 -5z"/>
<path fill="#d4a853" d="M3660 3814 c0 -20 4 -25 16 -20 9 3 26 6 38 6 15 0 22 6 22 20 0 16
-7 20 -38 20 -34 0 -38 -3 -38 -26z"/>
<path fill="#d4a853" d="M3196 3822 c-5 -9 34 -72 45 -72 4 0 9 6 12 13 5 14 -49 71 -57 59z"/>
<path fill="#d4a853" d="M2827 3809 c-87 -20 -155 -75 -198 -159 -29 -58 -29 -163 1 -224 41
-84 132 -150 224 -162 135 -19 280 102 293 243 11 120 -43 218 -148 270 -73
36 -118 45 -172 32z m161 -58 c81 -42 123 -113 124 -207 0 -73 -13 -112 -54
-166 -88 -114 -296 -104 -377 19 -36 55 -45 95 -38 172 8 96 78 179 169 202
47 12 133 2 176 -20z"/>
<path fill="#d4a853" d="M2805 3695 c-50 -27 -75 -56 -89 -106 -35 -117 44 -219 169 -219 57
0 96 19 131 65 57 75 37 191 -41 244 -46 31 -127 39 -170 16z m133 -29 c61
-32 92 -97 78 -163 -9 -38 -57 -90 -90 -99 -43 -10 -114 5 -146 32 -53 45 -59
144 -12 198 38 43 120 58 170 32z"/>
<path fill="#d4a853" d="M3315 3800 c-8 -13 -1 -24 14 -19 6 3 7 10 2 18 -6 10 -10 10 -16 1z"/>
<path fill="#d4a853" d="M3595 3755 l-39 -12 39 -6 c40 -7 68 5 50 21 -6 5 -28 4 -50 -3z"/>
<path fill="#d4a853" d="M3764 3724 c-10 -30 -9 -34 3 -30 8 3 24 6 36 6 17 0 22 6 23 30 1
26 -2 30 -25 30 -21 0 -28 -7 -37 -36z"/>
<path fill="#d4a853" d="M3360 3728 c0 -21 1 -21 51 -6 52 15 49 28 -6 26 -36 -2 -45 -6 -45
-20z"/>
<path fill="#d4a853" d="M3856 3630 c-8 -40 49 -126 71 -108 12 10 10 14 -11 25 -31 16 -43
55 -27 89 9 21 8 24 -8 24 -13 0 -20 -10 -25 -30z"/>
<path fill="#d4a853" d="M3481 3599 c-49 -9 -115 -46 -148 -81 -12 -12 -34 -49 -49 -82 -23
-50 -26 -68 -22 -125 6 -81 33 -138 87 -180 96 -76 204 -93 299 -45 97 48 152
141 152 254 0 159 -161 290 -319 259z m147 -45 c85 -35 141 -120 142 -213 0
-75 -17 -125 -62 -176 -52 -59 -108 -80 -193 -72 -76 7 -107 22 -157 74 -72
74 -88 174 -44 268 26 56 53 83 111 113 49 26 149 29 203 6z"/>
<path fill="#d4a853" d="M3490 3498 c-68 -18 -130 -101 -130 -173 0 -46 20 -84 64 -123 114
-100 289 -6 274 148 -6 59 -26 92 -76 124 -45 29 -86 36 -132 24z m120 -44
c40 -24 62 -68 62 -125 0 -57 -19 -91 -65 -119 -59 -36 -152 -20 -195 35 -27
34 -30 111 -7 156 33 63 140 91 205 53z"/>
<path fill="#d4a853" d="M2310 3104 c0 -9 73 -36 160 -61 227 -63 540 -112 540 -84 0 12 -17
17 -115 30 -283 39 -378 55 -440 75 -91 31 -145 46 -145 40z"/>
<path fill="#d4a853" d="M2015 3058 c19 -113 25 -96 -72 -188 -89 -84 -129 -131 -86 -100 12
8 60 48 106 88 46 39 86 72 88 72 10 0 139 -128 139 -137 0 -17 -80 -86 -226
-194 -76 -57 -132 -105 -126 -107 13 -4 252 162 338 235 28 24 56 43 61 43 6
0 49 -18 97 -40 61 -28 86 -45 86 -57 0 -19 -172 -149 -303 -229 -67 -41 -92
-64 -70 -64 26 0 274 162 356 232 l58 51 67 -7 c37 -4 100 -9 140 -13 51 -4
72 -10 72 -19 0 -38 -478 -343 -562 -359 -35 -7 -113 15 -174 48 -16 9 -40 22
-54 29 -53 26 -142 90 -147 106 -4 9 -15 23 -26 31 -25 18 -67 108 -67 144 0
29 -14 37 -24 12 -7 -18 26 -106 55 -146 10 -15 19 -31 20 -36 0 -7 42 -43
125 -108 17 -13 62 -36 100 -50 38 -14 80 -34 94 -43 34 -23 162 -25 155 -2
-3 11 28 32 111 74 145 75 300 176 383 250 68 62 94 76 144 77 18 0 41 4 52 9
11 4 -24 6 -80 3 -187 -10 -370 33 -560 130 -132 67 -201 136 -240 236 -15 39
-29 71 -32 71 -3 0 -2 -19 2 -42z"/>
<path fill="#d4a853" d="M3179 3034 c-10 -13 -10 -17 2 -25 18 -11 59 -12 59 -1 0 9 -33 42
-42 42 -3 0 -11 -7 -19 -16z"/>
<path fill="#d4a853" d="M3117 2956 c-3 -8 2 -16 13 -19 38 -10 28 -151 -16 -213 -10 -15 -23
-33 -29 -40 -6 -9 -4 -19 8 -32 9 -10 17 -32 17 -49 0 -26 3 -30 30 -30 17 0
29 3 27 6 -29 56 -30 61 -17 86 7 14 22 27 32 31 18 5 18 7 4 23 -26 28 -21
87 9 107 l24 16 -27 23 c-24 21 -25 26 -14 45 11 17 10 21 -5 27 -10 3 -25 12
-34 20 -14 12 -17 12 -22 -1z"/>
<path fill="#d4a853" d="M3242 2905 c13 -29 23 -32 32 -8 7 17 -9 33 -31 33 -10 0 -10 -6 -1
-25z"/>
<path fill="#d4a853" d="M3253 2718 c-24 -11 -31 -28 -13 -28 6 0 15 -11 21 -24 10 -21 14
-23 33 -13 11 7 22 13 24 14 6 2 -28 63 -36 62 -4 0 -17 -5 -29 -11z"/>
<path fill="#d4a853" d="M3225 2576 c-16 -6 -31 -11 -33 -12 -2 -1 3 -14 10 -29 13 -23 16
-25 27 -11 8 9 20 16 27 16 14 0 20 36 7 43 -5 2 -21 -1 -38 -7z"/>
<path fill="#d4a853" d="M3414 2576 c-4 -9 -12 -15 -19 -12 -7 2 -19 -4 -28 -15 -9 -10 -24
-19 -33 -19 -11 0 -14 -6 -8 -22 9 -32 11 -33 29 -14 9 9 27 16 40 16 20 0 25
7 31 35 7 38 -1 59 -12 31z"/>
<path fill="#d4a853" d="M3034 2524 c3 -9 6 -24 6 -35 0 -14 7 -19 26 -19 20 0 25 4 20 16 -3
9 -6 24 -6 35 0 14 -7 19 -26 19 -20 0 -25 -4 -20 -16z"/>
<path fill="#d4a853" d="M2903 2503 c-18 -7 -16 -33 2 -33 8 0 15 9 15 20 0 11 -1 20 -2 19
-2 0 -9 -3 -15 -6z"/>
<path fill="#d4a853" d="M3180 2460 c-8 -5 -28 -10 -44 -10 -21 0 -27 -4 -22 -16 3 -9 6 -22
6 -30 0 -11 6 -9 23 6 14 14 31 20 50 17 30 -4 33 1 15 26 -9 12 -17 14 -28 7z"/>
<path fill="#d4a853" d="M3305 2424 c-11 -8 -30 -13 -41 -11 -20 3 -21 0 -17 -33 3 -22 1 -40
-6 -44 -17 -11 -13 -23 10 -29 18 -5 20 -2 14 20 -8 33 18 73 49 73 28 0 36 8
29 26 -7 18 -13 17 -38 -2z"/>
<path fill="#d4a853" d="M2930 2406 c0 -19 6 -25 33 -29 17 -2 33 -4 34 -3 1 0 -1 13 -4 29
-4 22 -11 27 -34 27 -24 0 -29 -4 -29 -24z"/>
<path fill="#d4a853" d="M2796 2364 c-9 -23 -8 -24 17 -24 12 0 32 -7 44 -15 19 -13 22 -13
27 1 9 22 9 22 -24 29 -16 4 -32 11 -35 16 -9 14 -22 11 -29 -7z"/>
<path fill="#d4a853" d="M3097 2360 c-17 -17 -17 -18 5 -23 28 -8 34 -2 22 22 -9 18 -10 18
-27 1z"/>
<path fill="#d4a853" d="M2683 2353 c-20 -7 -15 -23 7 -23 11 0 20 4 20 9 0 13 -12 19 -27 14z"/>
<path fill="#d4a853" d="M3010 2334 c0 -14 -5 -34 -10 -44 -8 -15 -6 -21 10 -30 17 -9 20 -8
20 12 0 13 7 33 15 44 13 19 12 22 -10 32 -23 11 -25 10 -25 -14z"/>
<path fill="#d4a853" d="M2726 2313 c4 -10 6 -35 5 -55 -1 -21 3 -38 8 -38 6 0 20 -10 31 -22
17 -19 22 -20 30 -9 6 10 1 20 -17 34 -22 18 -25 26 -20 64 4 40 3 43 -20 43
-20 0 -24 -3 -17 -17z"/>
<path fill="#d4a853" d="M2603 2302 c-21 -13 -8 -66 26 -99 26 -26 33 -29 38 -17 4 10 -4 24
-20 37 -16 14 -27 34 -29 54 -2 22 -7 30 -15 25z"/>
<path fill="#d4a853" d="M3150 2276 c0 -19 -5 -38 -11 -42 -8 -4 -7 -9 2 -15 25 -16 39 -9 39
19 0 15 4 34 10 42 6 9 5 17 -3 22 -25 16 -37 8 -37 -26z"/>
<path fill="#d4a853" d="M2877 2253 c-3 -18 0 -31 11 -40 25 -18 31 -16 38 13 5 18 1 29 -12
39 -27 20 -31 19 -37 -12z"/>
<path fill="#d4a853" d="M2470 2230 c0 -5 6 -13 14 -17 7 -4 19 -19 26 -33 l13 -24 9 23 c6
18 4 29 -8 42 -18 20 -54 26 -54 9z"/>
<path fill="#d4a853" d="M2374 2200 c-1 -36 6 -37 34 -7 29 30 28 37 -5 37 -24 0 -28 -4 -29
-30z"/>
<path fill="#d4a853" d="M3038 2185 c-2 -19 -1 -35 3 -35 4 0 13 -2 21 -5 8 -3 17 7 24 29 10
31 9 35 -10 40 -33 9 -34 8 -38 -29z"/>
<path fill="#d4a853" d="M2914 2135 c-9 -30 -8 -33 20 -43 34 -13 31 -15 39 18 5 20 1 28 -21
41 -28 16 -28 15 -38 -16z"/>
<path fill="#d4a853" d="M2512 2125 c-11 -23 -9 -32 10 -63 33 -53 33 -179 0 -237 -20 -37
-21 -43 -9 -83 l13 -43 33 46 c32 45 33 47 21 96 -20 81 16 201 71 240 24 17
27 24 18 40 -10 20 -11 19 -30 -5 -31 -39 -91 -30 -108 15 -7 19 -8 19 -19 -6z"/>
<path fill="#d4a853" d="M2250 2132 c-8 -3 -34 -13 -57 -23 l-42 -18 20 -38 c28 -52 23 -173
-9 -227 -20 -33 -21 -41 -9 -76 6 -22 14 -40 17 -40 3 0 17 21 33 46 23 39 26
51 18 80 -11 39 0 139 19 175 7 13 24 37 39 52 23 25 24 30 10 40 -9 7 -18 17
-20 23 -2 6 -11 9 -19 6z"/>
<path fill="#d4a853" d="M2367 2118 c-16 -17 -17 -26 -8 -66 17 -83 -17 -193 -76 -243 -26
-22 -28 -30 -29 -94 0 -74 -16 -116 -58 -157 -30 -30 -61 -195 -61 -328 l0
-95 39 -10 c33 -8 44 -6 79 14 31 18 54 23 98 22 57 -1 57 -1 62 31 9 56 1
359 -10 366 -27 17 -56 99 -56 155 0 94 36 100 73 13 l16 -40 17 50 c16 49 16
51 -8 99 -32 61 -34 150 -5 213 10 23 15 42 10 42 -5 0 -21 10 -37 23 -27 23
-28 23 -46 5z"/>
<path fill="#d4a853" d="M2781 2127 c-15 -15 -14 -27 2 -27 8 0 22 -9 32 -20 12 -13 22 -17
28 -11 7 7 -1 20 -21 39 -22 20 -34 26 -41 19z"/>
<path fill="#d4a853" d="M2706 2075 c4 -8 10 -12 15 -9 14 8 10 24 -6 24 -9 0 -12 -6 -9 -15z"/>
<path fill="#d4a853" d="M2037 2044 c-21 -11 -27 -20 -21 -32 16 -39 23 -117 14 -164 -9 -45
-7 -53 15 -86 14 -20 25 -42 25 -49 0 -7 5 -13 10 -13 6 0 10 9 10 21 0 11 5
30 11 41 9 17 7 30 -12 67 -30 59 -37 157 -16 200 18 35 8 39 -36 15z"/>
<path fill="#d4a853" d="M1863 1968 c-24 -12 -31 -28 -11 -28 6 0 20 -7 29 -16 18 -16 18 -15
17 20 -1 39 -2 40 -35 24z"/>
<path fill="#d4a853" d="M1736 1903 l-29 -15 32 -14 c19 -8 34 -14 35 -14 1 0 3 14 4 30 3 34
-2 35 -42 13z"/>
<path fill="#d4a853" d="M1630 1840 c-14 -10 -23 -20 -20 -22 43 -28 48 -28 52 8 5 39 2 40
-32 14z"/>
<path fill="#d4a853" d="M1516 1774 c-20 -14 -20 -14 0 -28 16 -13 19 -13 22 0 2 8 2 20 0 28
-3 13 -6 13 -22 0z"/>
<path fill="#d4a853" d="M1660 1754 c0 -16 -5 -35 -12 -42 -9 -9 -8 -16 5 -29 16 -16 17 -16
17 6 0 12 5 32 11 43 9 16 7 24 -5 36 -15 15 -16 14 -16 -14z"/>
<path fill="#d4a853" d="M1540 1695 c0 -17 -3 -40 -6 -52 -5 -16 -2 -23 9 -23 21 0 31 70 12
90 -13 13 -15 11 -15 -15z"/>
<path fill="#d4a853" d="M2080 1585 c0 -8 5 -15 10 -15 6 0 10 7 10 15 0 8 -4 15 -10 15 -5 0
-10 -7 -10 -15z"/>
<path fill="#d4a853" d="M3600 2211 c0 -23 1 -41 3 -41 2 0 27 7 56 16 56 16 57 24 6 42 -16
5 -38 13 -47 17 -15 6 -18 1 -18 -34z"/>
<path fill="#d4a853" d="M3685 1919 c-5 -5 -35 -25 -65 -45 -91 -60 -90 -56 -36 -108 26 -25
50 -46 53 -46 4 0 15 -8 25 -17 13 -12 23 -14 32 -8 7 6 45 32 84 59 40 27 72
53 72 57 0 5 -17 20 -37 33 -21 13 -53 38 -72 55 -37 34 -41 35 -56 20z"/>
</g>
</svg>