<svg xmlns="http://www.w3.org/2000/svg" version="1.2" baseProfile="tiny-ps" viewBox="0 0 512 512">
<title>DNS Tool</title>
<rect width="512" height="512" rx="64" fill="#0d1117"/>
<g transform="translate(256,240)">
<circle cx="0" cy="0" r="160" fill="#161b22" stroke="#30363d" stroke-width="3"/>
<circle cx="-45" cy="-30" r="32" fill="#1a1e24" stroke="#c9d1d9" stroke-width="2.5"/>
<circle cx="45" cy="-30" r="32" fill="#1a1e24" stroke="#c9d1d9" stroke-width="2.5"/>
<circle cx="-45" cy="-30" r="14" fill="#e8b23a"/>
<circle cx="45" cy="-30" r="14" fill="#e8b23a"/>
<circle cx="-45" cy="-30" r="6" fill="#0d1117"/>
<circle cx="45" cy="-30" r="6" fill="#0d1117"/>
<path d="M-12 30 L0 50 L12 30" fill="#c9d1d9" stroke="#c9d1d9" stroke-width="2" stroke-linejoin="round"/>
<path d="M-100 -80 Q-160 -160 -80 -130 Q-40 -115 -30 -80" fill="none" stroke="#c9d1d9" stroke-width="3" stroke-linecap="round"/>
<path d="M100 -80 Q160 -160 80 -130 Q40 -115 30 -80" fill="none" stroke="#c9d1d9" stroke-width="3" stroke-linecap="round"/>
<path d="M-70 70 Q-100 110 -60 120 Q-20 125 0 100 Q20 125 60 120 Q100 110 70 70" fill="none" stroke="#30363d" stroke-width="2"/>
</g>
<text x="256" y="445" text-anchor="middle" font-family="sans-serif" font-weight="700" font-size="42" fill="#c9d1d9">DNS TOOL</text>
<rect x="96" y="460" width="320" height="3" rx="1.5" fill="#e8b23a" opacity="0.6"/>
</svg>
